<svg width="100" height="24" viewBox="0 0 100 24" fill="none" xmlns="http://www.w3.org/2000/svg">
<rect width="24" height="24" rx="2" fill="#FEBC1F"/>
<rect x="4.35" y="4.35" width="4.12543" height="15.3001" rx="2.06272" fill="#2624B5" stroke="black" stroke-width="0.7"/>
<rect x="9.93832" y="10.3198" width="4.12543" height="9.32993" rx="2.06272" fill="#2624B5" stroke="black" stroke-width="0.7"/>
<rect x="15.5266" y="14.1413" width="4.12543" height="5.509" rx="2.06272" fill="#2624B5" stroke="black" stroke-width="0.7"/>
<path d="M37.558 16.196C36.0927 16.196 34.8747 15.706 33.904 14.726C32.9427 13.7553 32.462 12.5467 32.462 11.1C32.462 9.644 32.9427 8.43533 33.904 7.474C34.8747 6.494 36.0927 6.004 37.558 6.004C38.4447 6.004 39.2613 6.214 40.008 6.634C40.764 7.04467 41.352 7.60467 41.772 8.314L40.106 9.28C39.8633 8.84133 39.518 8.50067 39.07 8.258C38.622 8.006 38.118 7.88 37.558 7.88C36.606 7.88 35.836 8.17867 35.248 8.776C34.6693 9.38267 34.38 10.1573 34.38 11.1C34.38 12.0333 34.6693 12.8033 35.248 13.41C35.836 14.0073 36.606 14.306 37.558 14.306C38.118 14.306 38.622 14.1847 39.07 13.942C39.5273 13.69 39.8727 13.3493 40.106 12.92L41.772 13.886C41.352 14.5953 40.764 15.16 40.008 15.58C39.2613 15.9907 38.4447 16.196 37.558 16.196ZM44.7902 9V10.204C44.9489 9.76533 45.2195 9.434 45.6022 9.21C45.9849 8.97667 46.4235 8.86 46.9182 8.86V10.876C46.3675 10.8013 45.8729 10.9133 45.4342 11.212C45.0049 11.5013 44.7902 11.982 44.7902 12.654V16H42.9842V9H44.7902ZM51.1348 13.704L52.6888 9H54.6208L52.0728 16C51.7088 17.008 51.2235 17.736 50.6168 18.184C50.0195 18.6413 49.2728 18.8467 48.3768 18.8V17.12C48.8528 17.1293 49.2355 17.0267 49.5248 16.812C49.8142 16.5973 50.0428 16.252 50.2108 15.776L47.3408 9H49.3148L51.1348 13.704ZM59.5543 8.804C60.497 8.804 61.2996 9.16333 61.9623 9.882C62.6343 10.6007 62.9703 11.4733 62.9703 12.5C62.9703 13.5453 62.6343 14.4227 61.9623 15.132C61.309 15.8413 60.5063 16.196 59.5543 16.196C58.5743 16.196 57.8183 15.8553 57.2863 15.174V18.8H55.4803V9H57.2863V9.826C57.8183 9.14467 58.5743 8.804 59.5543 8.804ZM57.8323 13.928C58.1963 14.292 58.6583 14.474 59.2183 14.474C59.7783 14.474 60.2403 14.292 60.6043 13.928C60.9776 13.5547 61.1643 13.0787 61.1643 12.5C61.1643 11.9213 60.9776 11.45 60.6043 11.086C60.2403 10.7127 59.7783 10.526 59.2183 10.526C58.6583 10.526 58.1963 10.7127 57.8323 11.086C57.4683 11.45 57.2863 11.9213 57.2863 12.5C57.2863 13.0787 57.4683 13.5547 57.8323 13.928ZM68.0976 9V10.736H66.5156V13.648C66.5156 13.8907 66.5762 14.068 66.6976 14.18C66.8189 14.292 66.9962 14.3573 67.2296 14.376C67.4629 14.3853 67.7522 14.3807 68.0976 14.362V16C66.8749 16.14 66.0022 16.028 65.4796 15.664C64.9662 15.2907 64.7096 14.6187 64.7096 13.648V10.736H63.4916V9H64.7096V7.586L66.5156 7.04V9H68.0976ZM74.3803 16H71.9863L68.6963 6.2H70.7963L73.1903 13.732L75.5703 6.2H77.6843L74.3803 16ZM79.1673 8.16C78.8686 8.16 78.6073 8.05267 78.3833 7.838C78.1686 7.614 78.0613 7.35267 78.0613 7.054C78.0613 6.75533 78.1686 6.494 78.3833 6.27C78.6073 6.046 78.8686 5.934 79.1673 5.934C79.4753 5.934 79.7366 6.046 79.9513 6.27C80.1753 6.494 80.2873 6.75533 80.2873 7.054C80.2873 7.35267 80.1753 7.614 79.9513 7.838C79.7366 8.05267 79.4753 8.16 79.1673 8.16ZM80.0773 16H78.2713V9H80.0773V16ZM88.5343 13.242H83.2563C83.4896 14.1193 84.1476 14.558 85.2303 14.558C85.921 14.558 86.4436 14.3247 86.7983 13.858L88.2543 14.698C87.5636 15.6967 86.5463 16.196 85.2023 16.196C84.045 16.196 83.1163 15.846 82.4163 15.146C81.7163 14.446 81.3663 13.564 81.3663 12.5C81.3663 11.4547 81.7116 10.5773 82.4023 9.868C83.0836 9.15867 83.9703 8.804 85.0623 8.804C86.0983 8.804 86.943 9.15867 87.5963 9.868C88.2683 10.5773 88.6043 11.4547 88.6043 12.5C88.6043 12.696 88.581 12.9433 88.5343 13.242ZM83.2283 11.842H86.7983C86.6956 11.3847 86.4856 11.0347 86.1683 10.792C85.8603 10.5493 85.4916 10.428 85.0623 10.428C84.577 10.428 84.1756 10.554 83.8583 10.806C83.541 11.0487 83.331 11.394 83.2283 11.842ZM96.2836 13.312L97.4736 9H99.3916L97.1656 16H95.4436L94.1556 11.758L92.8676 16H91.1456L88.9196 9H90.8376L92.0276 13.298L93.3016 9H95.0096L96.2836 13.312Z" fill="black"/>
</svg>
